<?xml version="1.0" encoding="utf-8"?>
<!-- Generator: Adobe Illustrator 22.0.1, SVG Export Plug-In . SVG Version: 6.00 Build 0)  -->
<svg version="1.1" id="Layer_1" xmlns="http://www.w3.org/2000/svg" xmlns:xlink="http://www.w3.org/1999/xlink" x="0px" y="0px"
	 viewBox="0 0 2000 2000" style="enable-background:new 0 0 2000 2000;" xml:space="preserve">
<style type="text/css">
	.st0{fill:#FFFFFF;}
	.st1{opacity:0.2;fill:#B2D4FF;enable-background:new    ;}
	.st2{fill:#57D9A3;}
	.st3{fill:#6554C0;}
	.st4{fill:url(#SVGID_1_);}
	.st5{fill:url(#SVGID_2_);}
	.st6{fill:url(#SVGID_3_);}
	.st7{fill:url(#SVGID_4_);}
	.st8{fill:url(#SVGID_5_);}
	.st9{clip-path:url(#SVGID_7_);}
	.st10{enable-background:new    ;}
	.st11{fill:#EAE6FF;}
	.st12{fill:#E6FCFF;}
	.st13{fill:#E3FCEF;}
	.st14{fill:#2684FF;}
</style>
<title>Artboard 4</title>
<path class="st0" d="M1000,1800c-440.8-0.4-797.7-358.1-797.3-798.9s358.1-797.7,798.9-797.3s797.7,358.1,797.3,798.9
	c-0.3,320.4-192.3,609.6-487.4,734.3C1212.9,1778.8,1107,1800.2,1000,1800z M1000,650c-193.3,0-350,156.7-350,350s156.7,350,350,350
	c193.3,0,350-156.7,350-350c0-92.8-36.9-181.8-102.5-247.5C1182,686.7,1092.9,649.7,1000,650z"/>
<path class="st1" d="M1000,575c113.5,0,220.2,44.2,300.5,124.5c80.3,80.3,124.5,187,124.5,300.5s-44.2,220.2-124.5,300.5
	c-80.3,80.3-187,124.5-300.5,124.5s-220.2-44.2-300.5-124.5c-80.3-80.3-124.5-187-124.5-300.5s44.2-220.2,124.5-300.5
	C779.8,619.2,886.5,575,1000,575 M1000,200c-441.8,0-800,358.2-800,800s358.2,800,800,800s800-358.2,800-800S1441.8,200,1000,200z"
	/>
<g>
	<path class="st2" d="M1000,350c341.1,0,620.8,262.7,647.8,596.8l72.8-26.2C1681.1,557.5,1373.6,275,1000,275
		c-26.5,0-53.1,1.4-79.4,4.3l26.2,72.8C964.3,350.7,982.1,350,1000,350z"/>
	<path class="st3" d="M1720.7,920.6l-72.8,26.2c1.4,17.6,2.1,35.3,2.2,53.2c0,341.1-262.7,620.8-596.8,647.8l26.2,72.8
		c363-39.6,645.6-347.1,645.6-720.7C1725,973.5,1723.6,946.9,1720.7,920.6z"/>
	
		<linearGradient id="SVGID_1_" gradientUnits="userSpaceOnUse" x1="677.2243" y1="1772.2571" x2="677.2243" y2="1535.5707" gradientTransform="matrix(1 0 0 -1 0 2000)">
		<stop  offset="0" style="stop-color:#57D9A3"/>
		<stop  offset="0.1822" style="stop-color:#50D7A9"/>
		<stop  offset="0.4538" style="stop-color:#3BD3B8"/>
		<stop  offset="0.7797" style="stop-color:#1ACCD1"/>
		<stop  offset="1" style="stop-color:#00C7E5"/>
	</linearGradient>
	<path class="st4" d="M1053.2,1647.8c-17.6,1.4-35.3,2.1-53.2,2.2c-341.1,0-620.8-262.7-647.8-596.8c-1.4-17.6-2.1-35.3-2.2-53.2
		c0-341.1,262.7-620.8,596.8-647.8l-26.2-72.8C557.5,318.9,275,626.4,275,1000c0,26.5,1.4,53.1,4.3,79.4
		c39.6,363,347.1,645.6,720.7,645.6c26.5,0,53.1-1.4,79.4-4.3L1053.2,1647.8z"/>
	
		<linearGradient id="SVGID_2_" gradientUnits="userSpaceOnUse" x1="1017.7938" y1="377.5752" x2="373.1337" y2="1022.2353" gradientTransform="matrix(1 0 0 -1 0 2000)">
		<stop  offset="0" style="stop-color:#0052CC"/>
		<stop  offset="1" style="stop-color:#0065FF"/>
	</linearGradient>
	<path class="st5" d="M1055.6,1345.6c-18.4,2.9-37,4.4-55.6,4.4c-171.8,0-318.3-124.8-345.6-294.4L500,1000l-147.8,53.2
		C379.2,1387.3,658.9,1650,1000,1650c17.9,0,35.7-0.7,53.2-2.2L1000,1500L1055.6,1345.6z"/>
	
		<linearGradient id="SVGID_3_" gradientUnits="userSpaceOnUse" x1="373.6586" y1="978.2896" x2="1023.6584" y2="1628.2894" gradientTransform="matrix(1 0 0 -1 0 2000)">
		<stop  offset="0" style="stop-color:#0052CC"/>
		<stop  offset="1" style="stop-color:#0065FF"/>
	</linearGradient>
	<path class="st6" d="M654.4,1055.6c-2.9-18.4-4.4-37-4.4-55.6c0-171.8,124.8-318.3,294.4-345.6L1000,500l-53.2-147.8
		C612.7,379.2,350,658.9,350,1000c0,17.9,0.7,35.7,2.2,53.2L500,1000L654.4,1055.6z"/>
	
		<linearGradient id="SVGID_4_" gradientUnits="userSpaceOnUse" x1="1624.1667" y1="1019.5358" x2="979.3202" y2="374.6892" gradientTransform="matrix(1 0 0 -1 0 2000)">
		<stop  offset="0" style="stop-color:#0052CC"/>
		<stop  offset="1" style="stop-color:#0065FF"/>
	</linearGradient>
	<path class="st7" d="M1345.6,944.4c2.9,18.4,4.4,37,4.4,55.6c0,171.8-124.8,318.3-294.4,345.6L1000,1500l53.2,147.8
		c334.1-27.1,596.8-306.8,596.8-647.8c0-17.9-0.7-35.7-2.2-53.2L1500,1000L1345.6,944.4z"/>
	
		<linearGradient id="SVGID_5_" gradientUnits="userSpaceOnUse" x1="944.4186" y1="1325" x2="1647.8398" y2="1325" gradientTransform="matrix(1 0 0 -1 0 2000)">
		<stop  offset="0" style="stop-color:#0052CC"/>
		<stop  offset="1" style="stop-color:#0065FF"/>
	</linearGradient>
	<path class="st8" d="M1000,350c-17.9,0-35.7,0.7-53.2,2.2L1000,500l-55.6,154.4c18.4-2.9,37-4.4,55.6-4.4
		c171.8,0,318.3,124.8,345.6,294.4L1500,1000l147.8-53.2C1620.8,612.7,1341.1,350,1000,350z"/>
</g>
<g>
	<defs>
		<path id="SVGID_6_" d="M1000,650c193.3,0,350,156.7,350,350c0,193.3-156.7,350-350,350c-193.3,0-350-156.7-350-350
			c0-92.8,36.9-181.9,102.5-247.5C818,686.7,907.1,649.7,1000,650 M1000,275c-400.4,0-725,324.6-725,725s324.6,725,725,725
			s725-324.6,725-725S1400.4,275,1000,275z"/>
	</defs>
	<clipPath id="SVGID_7_">
		<use xlink:href="#SVGID_6_"  style="overflow:visible;"/>
	</clipPath>
	<g class="st9">
		<g>
			<polygon class="st0" points="27.9,1164.7 29.6,1169.4 27.9,1164.7 			"/>
			<path class="st0" d="M686,1061.6l-184.3-66.3l-1.7-0.6L351.8,1048c0.1,1.7,0.2,3.5,0.4,5.2c0.1,1.7,0.3,3.4,0.5,5.2l147.4-53.1
				l188.4,67.8C687.5,1069.3,686.7,1065.5,686,1061.6z"/>
			<g>
				<path class="st0" d="M938.4,686l66.3-184.3l0.6-1.7l-92.7-257.6c-3.4,0.4-6.8,0.8-10.2,1.2L994.7,500l-67.8,188.4
					C930.7,687.5,934.5,686.7,938.4,686z"/>
				<path class="st0" d="M1311.6,926.9c0.9,3.8,1.7,7.7,2.5,11.5l184.3,66.3l1.7,0.6l257.6-92.7c-0.4-3.4-0.8-6.8-1.2-10.2
					L1500,994.7L1311.6,926.9z"/>
				<path class="st0" d="M1073.1,1311.6c-3.8,0.9-7.7,1.7-11.5,2.5l-66.3,184.3l-0.6,1.7l92.7,257.6c3.4-0.4,6.8-0.8,10.2-1.2
					l-92.3-256.3L1073.1,1311.6z"/>
			</g>
		</g>
	</g>
</g>
<g class="st10">
	<path class="st0" d="M1214.7,541.8c0.4-1.5,0.2-4.3-3-5.8c-2.4-1.1-4.8-0.3-5.5,1.4c-0.6,1.4-0.3,3,1.5,4.2l3.3,2.3
		c4.3,3.1,5.4,7.3,3.7,10.9c-1.8,4-6.9,6.5-13,3.7c-6.8-3.1-7.8-8.9-6.6-12.8l5.2,0.9c-0.9,2.6-0.2,5.8,3.4,7.4
		c2.7,1.2,4.8,0.6,5.6-1.3c0.7-1.5,0.1-3.2-1.7-4.5l-3.3-2.4c-3.7-2.7-5.2-6.6-3.4-10.5c2.1-4.6,7.8-6.2,12.7-4
		c6.3,2.9,6.9,7.7,6.2,10.9L1214.7,541.8z"/>
</g>
<g class="st10">
	<path class="st0" d="M1225.7,557.6l-4.9,9.5l-4.9-2.5l13.1-25.2l9.4,4.9c5,2.6,6.6,7.6,4.2,12.1c-2.4,4.6-7.4,6.1-12.3,3.5
		L1225.7,557.6z M1231.8,555.5c2.4,1.3,4.7,0.6,5.8-1.5c1.2-2.2,0.4-4.4-2.1-5.7l-3.9-2l-3.7,7.2L1231.8,555.5z"/>
</g>
<g class="st10">
	<path class="st0" d="M1250.4,570.9l-2.5-1.5l-5.5,9.4l-4.8-2.8l14.4-24.5l9.6,5.6c4.8,2.8,5.9,7.9,3.4,12.1c-2,3.4-5.5,4.8-9.3,3.9
		l-0.6,13.1l-5.3-3.1L1250.4,570.9z M1254.2,567.6c2.4,1.4,4.6,0.9,5.8-1.1c1.2-2.1,0.6-4.2-1.8-5.7l-3.9-2.3l-4,6.8L1254.2,567.6z"
		/>
</g>
<g class="st10">
	<path class="st0" d="M1259.6,589.3l15.3-23.9l4.7,3l-15.3,23.9L1259.6,589.3z"/>
</g>
<g class="st10">
	<path class="st0" d="M1285.3,606.7l1.1-23.9l-11.6,16.4l-4.5-3.2l16.4-23.2l5.6,4l-1.2,22.1l10.8-15.3l4.5,3.2L1290,610
		L1285.3,606.7z"/>
</g>
<g class="st10">
	<path class="st0" d="M1319.2,603.6l-14.4,18.1l-4.3-3.5l14.4-18.1l-7-5.6l3.3-4.1l18.4,14.6l-3.3,4.1L1319.2,603.6z"/>
</g>
<g class="st10">
	<path class="st0" d="M1334.5,633.1l-7.2,7.8l-4.1-3.7l19.2-20.8l7.8,7.2c4.1,3.8,4.3,9.1,0.8,12.8c-3.5,3.8-8.7,4-12.8,0.2
		L1334.5,633.1z M1341,632.6c2,1.9,4.3,1.8,6,0c1.7-1.9,1.5-4.1-0.5-6l-3.2-3l-5.5,6L1341,632.6z"/>
</g>
<g class="st10">
	<path class="st0" d="M1341.2,654l20.2-19.9l3.9,3.9l-16.5,16.2l8.9,9l-3.8,3.7L1341.2,654z"/>
</g>
<g class="st10">
	<path class="st0" d="M1373.3,679l-7.6-8.6l-6.4,2.5l-3.9-4.4l28.5-10.6l4.2,4.8l-14.1,26.8l-4-4.5L1373.3,679z M1370.7,668.4
		l5.2,5.9l5.5-10L1370.7,668.4z"/>
</g>
<g class="st10">
	<path class="st0" d="M1387.8,707.2l8-22.5l-15.9,12.3l-3.4-4.4l22.4-17.4l4.2,5.4l-7.6,20.8l14.8-11.5l3.4,4.4l-22.4,17.4
		L1387.8,707.2z"/>
</g>
<g class="st10">
	<path class="st0" d="M1405.7,732.5l9.4-22l-16.6,11.3l-3.1-4.6l23.5-15.9l3.9,5.7l-8.9,20.3l15.5-10.5l3.1,4.6l-23.5,15.9
		L1405.7,732.5z"/>
</g>
<g class="st10">
	<path class="st0" d="M1412.6,743.3l24.1-14.9l2.9,4.8l-24.1,14.9L1412.6,743.3z"/>
</g>
<g class="st10">
	<path class="st0" d="M1428.2,770.2l11.3-21l-17.6,9.8l-2.7-4.8l24.8-13.8l3.3,6l-10.7,19.4l16.4-9.1l2.7,4.8l-24.8,13.8
		L1428.2,770.2z"/>
</g>
<g class="st10">
	<path class="st0" d="M1443.2,800.4l2.8-1.7c-2.3-0.3-5.2-2-7-5.9c-3.3-6.9-1-15.2,7.3-19.1c8.3-3.9,16.3-0.1,19.6,6.8
		c3.2,6.7,1,12.3-2.3,15.4l-4-4c2-1.7,3.6-5.1,1.6-9.3c-1.8-3.9-6.5-6.8-12.5-3.9c-5.8,2.7-7,8-5,12.3c2.2,4.7,6.3,5.1,8.2,4.5
		l-3.8-8.1l4.3-2.1l6.1,12.8l-13.3,6.3L1443.2,800.4z"/>
</g>
<g>
	<g class="st10">
		<path class="st0" d="M563,745c-1.5-0.5-4.2-0.6-6,2.5c-1.3,2.3-0.7,4.7,0.9,5.6c1.4,0.8,2.9,0.5,4.3-1.1l2.6-3.1
			c3.4-4,7.7-4.7,11.2-2.7c3.8,2.2,5.8,7.5,2.5,13.2c-3.7,6.5-9.6,7-13.3,5.4l1.4-5.1c2.6,1.2,5.7,0.7,7.7-2.7
			c1.5-2.6,1-4.7-0.7-5.7c-1.4-0.8-3.1-0.4-4.6,1.3l-2.7,3c-3,3.5-7,4.6-10.7,2.4c-4.4-2.5-5.5-8.3-2.8-13c3.4-6,8.3-6.2,11.4-5.2
			L563,745z"/>
	</g>
	<g class="st10">
		<path class="st0" d="M579.8,735.5l9,5.8l-3,4.6l-23.9-15.3l5.7-8.9c3-4.7,8.2-5.8,12.5-3.1c4.3,2.8,5.4,7.9,2.4,12.6L579.8,735.5z
			 M578.1,729.2c1.5-2.3,1-4.6-1-5.9c-2.1-1.4-4.3-0.8-5.8,1.5l-2.4,3.7l6.8,4.4L578.1,729.2z"/>
	</g>
	<g class="st10">
		<path class="st0" d="M595.2,712l-1.7,2.3l8.9,6.4l-3.2,4.5l-23.1-16.5l6.4-9c3.2-4.5,8.3-5.1,12.4-2.3c3.2,2.3,4.3,5.9,3,9.6
			l13,1.8l-3.6,5L595.2,712z M592.3,707.9c1.6-2.3,1.3-4.5-0.6-5.9c-2-1.4-4.2-1-5.8,1.3l-2.6,3.6l6.4,4.6L592.3,707.9z"/>
	</g>
	<g class="st10">
		<path class="st0" d="M614.3,704.5l-22.4-17.4l3.4-4.4l22.4,17.4L614.3,704.5z"/>
	</g>
	<g class="st10">
		<path class="st0" d="M633.9,680.5l-23.7-3.2l15.3,13l-3.6,4.2l-21.6-18.4l4.5-5.2l21.9,3.2l-14.3-12.2l3.6-4.2l21.6,18.4
			L633.9,680.5z"/>
	</g>
	<g class="st10">
		<path class="st0" d="M633.9,646.5l16.7,16l-3.8,4l-16.7-16l-6.2,6.5l-3.8-3.6l16.2-17l3.8,3.6L633.9,646.5z"/>
	</g>
	<g class="st10">
		<path class="st0" d="M666.7,631.7l-2.1,1.9l7.3,8.1l-4.1,3.7l-19-21l8.2-7.4c4.1-3.7,9.3-3.2,12.6,0.4c2.7,2.9,2.9,6.7,0.9,10
			l12.3,4.5l-4.6,4.1L666.7,631.7z M664.7,627.1c2.1-1.9,2.2-4.2,0.7-5.9c-1.6-1.8-3.9-1.8-5.9,0l-3.3,3l5.3,5.8L664.7,627.1z"/>
	</g>
	<g class="st10">
		<path class="st0" d="M686.8,628.5l-17.9-22l13.8-11.2l3.3,4l-9.5,7.7l4.1,5l8.6-7l3.1,3.8l-8.6,7l4.1,5.1l9.5-7.7l3.3,4
			L686.8,628.5z"/>
	</g>
	<g class="st10">
		<path class="st0" d="M701.6,587.7l13.7,18.6l-4.5,3.3L697.1,591l-7.2,5.3l-3.1-4.2l18.9-13.9l3.1,4.2L701.6,587.7z"/>
	</g>
	<g class="st10">
		<path class="st0" d="M727.2,584.8l-2.4,1.6l6,9.1l-4.6,3l-15.6-23.7l9.3-6.1c4.6-3,9.6-1.8,12.3,2.3c2.2,3.3,1.9,7.1-0.6,10
			l11.4,6.4l-5.1,3.4L727.2,584.8z M725.9,580c2.3-1.5,2.8-3.8,1.6-5.7c-1.3-2-3.5-2.4-5.9-0.9l-3.7,2.5l4.3,6.6L725.9,580z"/>
	</g>
	<g class="st10">
		<path class="st0" d="M743.9,553.3c6.7-3.8,15.5-2.4,20,5.6c4.5,7.9,1.4,16.2-5.3,20.1c-6.7,3.8-15.4,2.4-20-5.5
			C734.1,565.5,737.3,557.2,743.9,553.3z M756,574.3c3.8-2.2,6.2-7.1,3-12.6c-3.2-5.5-8.6-6-12.4-3.8c-3.8,2.2-6.2,7-3,12.6
			S752.2,576.5,756,574.3z"/>
	</g>
</g>
<g class="st10">
	<path class="st0" d="M566.2,1236.7c1.2-1,2.8-3.3,1.1-6.4c-1.3-2.4-3.6-3.1-5.3-2.2c-1.4,0.7-2,2.2-1.4,4.2l1.2,3.9
		c1.5,5-0.1,9-3.7,10.9c-3.8,2-9.4,0.9-12.5-4.9c-3.5-6.6-0.8-11.8,2.5-14.1l3.6,3.9c-2.4,1.5-3.7,4.4-1.8,8
		c1.4,2.6,3.5,3.4,5.2,2.4c1.4-0.8,2-2.5,1.3-4.6l-1.2-3.9c-1.3-4.4-0.1-8.4,3.7-10.4c4.4-2.4,10-0.2,12.5,4.5
		c3.2,6.1,0.8,10.4-1.7,12.4L566.2,1236.7z"/>
</g>
<g class="st10">
	<path class="st0" d="M566.3,1255.9l-9.2,5.5l-2.8-4.7l24.3-14.6l5.5,9.1c2.9,4.8,1.6,9.9-2.8,12.5c-4.4,2.7-9.5,1.4-12.4-3.4
		L566.3,1255.9z M572.6,1257.2c1.4,2.4,3.7,3,5.7,1.7c2.2-1.3,2.6-3.5,1.2-5.9l-2.2-3.7l-7,4.2L572.6,1257.2z"/>
</g>
<g class="st10">
	<path class="st0" d="M581.6,1279.8l-1.6-2.4l-9.1,6.1l-3.1-4.6l23.5-15.8l6.2,9.2c3.1,4.6,1.9,9.6-2.2,12.4c-3.3,2.2-7.1,2-10-0.5
		l-6.2,11.5l-3.4-5.1L581.6,1279.8z M586.5,1278.4c1.6,2.3,3.8,2.8,5.7,1.5c2-1.3,2.4-3.6,0.8-5.9l-2.5-3.7l-6.5,4.4L586.5,1278.4z"
		/>
</g>
<g class="st10">
	<path class="st0" d="M583,1300.9l22.9-16.7l3.3,4.5l-22.9,16.7L583,1300.9z"/>
</g>
<g class="st10">
	<path class="st0" d="M602.7,1326.5l7.6-22.6l-15.7,12.6l-3.5-4.3l22.1-17.7l4.3,5.4l-7.2,20.9L625,1309l3.5,4.3l-22.1,17.7
		L602.7,1326.5z"/>
</g>
<g class="st10">
	<path class="st0" d="M637.1,1330.8l-17.2,15.5l-3.7-4.1l17.2-15.5l-6-6.7l3.9-3.5L647,1334l-3.9,3.5L637.1,1330.8z"/>
</g>
<g class="st10">
	<path class="st0" d="M651.6,1363.2l-2.1-2l-7.5,7.9l-4-3.8l19.6-20.5l8,7.7c4,3.8,3.9,9,0.5,12.5c-2.7,2.9-6.5,3.4-9.9,1.6
		l-3.6,12.6l-4.5-4.3L651.6,1363.2z M656.1,1360.8c2,1.9,4.3,1.9,5.9,0.2c1.7-1.7,1.6-4-0.5-5.9l-3.2-3.1l-5.4,5.7L656.1,1360.8z"/>
</g>
<g class="st10">
	<path class="st0" d="M657.6,1383.7l18.5-21.5l13.4,11.6l-3.4,3.9l-9.3-8l-4.2,4.9l8.4,7.2l-3.2,3.7l-8.4-7.2l-4.3,5l9.3,8l-3.4,3.9
		L657.6,1383.7z"/>
</g>
<g class="st10">
	<path class="st0" d="M708.5,1388.7l4.6,3.6l-25.7,16l-4.5-3.5l9.1-28.8l4.8,3.7l-7.1,21.2L708.5,1388.7z"/>
</g>
<g class="st10">
	<path class="st0" d="M700.2,1417.8l16.4-23.1l4.6,3.2l-16.4,23.1L700.2,1417.8z"/>
</g>
<g class="st10">
	<path class="st0" d="M711.5,1425.8L727,1402l14.9,9.7l-2.8,4.3l-10.2-6.7l-3.6,5.4l9.3,6.1l-2.7,4.1l-9.3-6.1l-3.6,5.5l10.2,6.7
		l-2.8,4.3L711.5,1425.8z"/>
</g>
<g class="st10">
	<path class="st0" d="M774.4,1430.6l4.9,2.8l-20.7,20.9l-4.9-2.8l4.3-20.8l-15.6,14.4l-5-2.8l7.1-28.6l5.1,2.9l-5.1,19.6l15.1-13.9
		l5,2.8l-4.1,20.2L774.4,1430.6z"/>
</g>
<g>
	<g class="st10">
		<path class="st11" d="M1507.6,1454c-1-0.6-3-1.1-4.8,0.9c-1.3,1.5-1.3,3.3-0.2,4.3c0.9,0.8,2.1,0.9,3.3-0.1l2.4-1.8
			c3.2-2.4,6.4-2.2,8.6-0.2c2.4,2.2,3,6.4-0.3,10.1c-3.8,4.2-8.1,3.6-10.6,1.8l1.8-3.5c1.7,1.3,4.1,1.5,6.1-0.8
			c1.5-1.6,1.5-3.3,0.4-4.3c-0.9-0.8-2.2-0.8-3.6,0.2l-2.4,1.8c-2.8,2-5.9,2.2-8.3,0c-2.8-2.5-2.7-7,0-10c3.5-3.8,7.1-3.2,9.2-1.9
			L1507.6,1454z"/>
	</g>
	<g class="st10">
		<path class="st11" d="M1521.2,1449.3l6.1,5.2l-2.7,3.1l-16.2-13.8l5.2-6c2.7-3.2,6.7-3.5,9.6-1c2.9,2.5,3.2,6.4,0.5,9.6
			L1521.2,1449.3z M1520.6,1444.4c1.3-1.6,1.3-3.3-0.1-4.5c-1.4-1.2-3.1-1-4.5,0.5l-2.1,2.5l4.6,4L1520.6,1444.4z"/>
	</g>
	<g class="st10">
		<path class="st11" d="M1534.7,1432.8l-1.4,1.7l6.4,5.2l-2.6,3.2l-16.5-13.4l5.2-6.5c2.6-3.2,6.5-3.5,9.3-1.2
			c2.3,1.9,3,4.6,1.8,7.3l9.6,1.9l-2.9,3.6L1534.7,1432.8z M1532.7,1429.7c1.3-1.6,1.2-3.3-0.2-4.4c-1.4-1.1-3.1-0.9-4.4,0.7
			l-2.1,2.6l4.6,3.7L1532.7,1429.7z"/>
	</g>
	<g class="st10">
		<path class="st11" d="M1549.5,1427.4l-16.8-13l2.6-3.3l16.8,13L1549.5,1427.4z"/>
	</g>
	<g class="st10">
		<path class="st11" d="M1563.9,1408.2l-17.9-1.2l12.2,8.9l-2.5,3.3l-17.1-12.6l3.1-4.2l16.6,1.2l-11.3-8.3l2.5-3.3l17.1,12.6
			L1563.9,1408.2z"/>
	</g>
	<g class="st10">
		<path class="st11" d="M1560.8,1382.5l14.3,9.8l-2.4,3.4l-14.3-9.8l-3.8,5.5l-3.2-2.2l10-14.5l3.2,2.2L1560.8,1382.5z"/>
	</g>
	<g class="st10">
		<path class="st11" d="M1571.8,1358.5c2.2-3.5,5.5-4.2,8.3-2.4c1.9,1.2,2.6,3.2,2.2,5c1.5-1.5,4-1.9,6.3-0.5
			c2.9,1.8,3.7,5.3,1.5,8.7l-4.4,7l-18-11.3L1571.8,1358.5z M1578.9,1363.7c1-1.6,0.7-3.1-0.6-4c-1.4-0.9-2.8-0.5-3.9,1.2l-1.6,2.5
			l4.5,2.8L1578.9,1363.7z M1586.8,1368.2c1.1-1.7,0.8-3.3-0.6-4.2c-1.4-0.9-3-0.6-4.1,1.1l-1.8,2.9l4.7,3L1586.8,1368.2z"/>
	</g>
	<g class="st10">
		<path class="st11" d="M1598.1,1346.8l-4.4,7.4l3.3,4l-2.2,3.8l-14.2-17.8l2.4-4.1l22.4,3.8l-2.3,3.9L1598.1,1346.8z
			 M1591.1,1351.2l3-5.1l-8.4-1.6L1591.1,1351.2z"/>
	</g>
	<g class="st10">
		<path class="st11" d="M1596.9,1337.3c-6-3.3-7.3-9.8-4.5-14.8c2.8-5.2,7.4-6.1,10.9-5.2l-0.8,4c-2-0.5-4.8-0.2-6.6,3.1
			c-1.5,2.8-1.1,6.8,3.1,9.1c4,2.2,7.7,0.6,9.3-2.4c1.7-3.2,0.5-5.9-1-7.3l2.9-2.8c2.5,2.3,4.5,6.9,1.6,12.1
			C1609,1338.3,1602.9,1340.6,1596.9,1337.3z"/>
	</g>
	<g class="st10">
		<path class="st11" d="M1613.5,1310l1.4,3.7l5.3,2.7l-1.9,3.7l-19-9.6l1.9-3.7l8.6,4.3l-4.8-11.9l2.4-4.8l4.5,11.7l14.5-2.2
			l-2.3,4.6L1613.5,1310z"/>
	</g>
	<g class="st10">
		<path class="st11" d="M1628.2,1300.2l-19.3-9l1.8-3.8l15.7,7.3l4-8.6l3.6,1.7L1628.2,1300.2z"/>
	</g>
	<g class="st10">
		<path class="st11" d="M1619.4,1267c2.3-5.3,8.2-8.4,14.5-5.7c6.3,2.7,8.1,9.1,5.8,14.4c-2.3,5.3-8.2,8.3-14.5,5.6
			C1619,1278.7,1617.2,1272.3,1619.4,1267z M1636.1,1274.2c1.3-3,0.5-7-3.9-8.9c-4.4-1.9-7.8,0.3-9.1,3.3c-1.3,3-0.5,7,3.9,8.9
			C1631.4,1279.4,1634.8,1277.2,1636.1,1274.2z"/>
	</g>
	<g class="st10">
		<path class="st11" d="M1651.3,1246.2l-2.4-0.6c1,1.4,1.6,3.9,0.4,6.9c-2.1,5.3-7.8,8.4-14.2,5.9c-6.4-2.5-8.5-8.8-6.4-14.2
			c2-5.2,6.2-6.9,9.6-6.7l-0.1,4.2c-2-0.2-4.6,0.7-5.9,3.9c-1.2,3-0.4,7,4.3,8.9c4.5,1.7,7.9-0.3,9.2-3.6c1.4-3.7-0.5-6-1.8-6.8
			l-2.4,6.3l-3.4-1.3l3.9-9.9l10.3,4L1651.3,1246.2z"/>
	</g>
</g>
<g>
	
		<rect x="462.4" y="1436.3" transform="matrix(0.7684 -0.64 0.64 0.7684 -810.9808 635.8867)" class="st12" width="21.3" height="4.2"/>
	<polygon class="st12" points="495.3,1448 484.7,1457.3 489.5,1441.3 486.1,1437.5 470.1,1451.5 472.8,1454.6 484.2,1444.6 
		479.2,1461.9 482,1465.1 498,1451.1 	"/>
	<path class="st12" d="M502.6,1475.6c-1.8,0.9-4.8,1.3-7.3-1.4c-2.3-2.5-2.7-6.5,0.6-9.6c3.5-3.3,7.5-2.4,9.7-0.1
		c2.5,2.7,2,5.4,0.9,7.2l3.6,2c1.9-3,2.5-7.6-1.5-11.9c-3.9-4.2-10.6-4.9-15.5-0.3c-4.9,4.6-4.7,11.2-0.6,15.5
		c4.1,4.4,9.1,3.9,12,2.2L502.6,1475.6z"/>
	<path class="st12" d="M523.9,1487.4c2.6-2.6,2.8-6.5-0.2-9.4l-5.9-5.9l-15,15l2.9,2.9l5.8-5.8l1.5,1.5l-2.8,8.7l3.3,3.3l2.9-9.4
		C518.9,1489.9,521.8,1489.5,523.9,1487.4z M516.4,1484.2l-2.4-2.4l4.2-4.2l2.4,2.4c1.5,1.5,1.5,3.2,0.3,4.5
		C519.6,1485.7,517.9,1485.7,516.4,1484.2z"/>
	<polygon class="st12" points="526,1497.7 532,1503.4 534.6,1500.7 528.5,1495 531.9,1491.5 538.6,1497.8 541.2,1494.9 
		531.6,1485.8 516.9,1501.2 526.6,1510.4 529.3,1507.6 522.6,1501.2 	"/>
	<polygon class="st12" points="558.2,1510.1 543.4,1517.5 548.7,1501.8 544.6,1498.2 530.6,1514.1 533.5,1516.7 543.3,1505.6 
		538.1,1520.8 540.7,1523.1 555.2,1515.9 545.3,1527.1 548.3,1529.8 562.4,1513.9 	"/>
	<polygon class="st12" points="561.9,1529.5 568.3,1534.8 570.6,1532 564.2,1526.7 567.3,1522.9 574.4,1528.8 576.9,1525.8 
		566.6,1517.3 553.1,1533.7 563.3,1542.2 565.8,1539.2 558.7,1533.3 	"/>
	<polygon class="st12" points="591.6,1537.3 583,1548.4 584.6,1531.9 580.5,1528.7 567.5,1545.5 570.8,1548.1 580,1536.1 
		578.4,1554 581.9,1556.6 594.9,1539.8 	"/>
	<polygon class="st12" points="611.9,1552.2 597.7,1541.9 595.4,1545.1 600.8,1549 590.6,1563.1 594,1565.5 604.2,1551.5 
		609.6,1555.4 	"/>
	<polygon class="st12" points="628.6,1563.2 607.6,1575.4 610.6,1577.4 631.6,1565.2 	"/>
	<path class="st12" d="M647.4,1575.5l-6.5-4l-11.1,18.1l6.5,4c5.2,3.2,11,2.2,14.5-3.6S652.5,1578.6,647.4,1575.5z M647.1,1587.8
		c-2.4,3.9-6,4.3-9,2.4l-2.8-1.7l7.1-11.6l2.8,1.7C648.2,1580.5,649.5,1583.8,647.1,1587.8z"/>
	<polygon class="st12" points="664.6,1600 666.4,1596.8 659.2,1592.7 661.6,1588.5 669.6,1593 671.5,1589.6 659.9,1583 
		649.4,1601.5 660.9,1608.1 662.9,1604.7 654.9,1600.2 657.4,1595.9 	"/>
	<polygon class="st12" points="691.6,1600.4 678.9,1611.1 680.4,1594.5 675.6,1592 665.6,1610.8 669.2,1612.6 676,1599.5 
		674.6,1615.5 677.6,1617.1 690,1606.8 683,1619.9 686.6,1621.8 696.6,1603 	"/>
	<path class="st12" d="M710.2,1609.1c-5.2-2.5-11.7-0.9-14.6,5.3c-2.9,6.2-0.1,12.2,5.1,14.7c5.2,2.5,11.7,0.9,14.6-5.3
		C718.3,1617.7,715.5,1611.6,710.2,1609.1z M711.5,1622c-2.1,4.3-6.1,4.9-9.1,3.5c-3-1.4-5-4.9-2.9-9.2s6.1-4.9,9-3.5
		C711.5,1614.1,713.6,1617.6,711.5,1622z"/>
</g>
<g>
	<g class="st10">
		<path class="st0" d="M1252.9,1447.9l-14.5-24.4l8.7-5.2c6.9-4.1,14.7-2.7,19.3,5c4.6,7.7,2.1,15.2-4.8,19.3L1252.9,1447.9z
			 M1258.8,1438.4c4-2.4,5.8-6.8,2.7-12.1c-3.1-5.3-7.9-5.8-11.9-3.5l-3.8,2.3l9.3,15.6L1258.8,1438.4z"/>
	</g>
	<g class="st10">
		<path class="st0" d="M1288.6,1417.8l-9.5,6.4l1.7,6.7l-4.8,3.3l-6.9-29.6l5.3-3.6l24.8,17.4l-5,3.4L1288.6,1417.8z M1277.8,1419
			l6.5-4.4l-9.2-6.7L1277.8,1419z"/>
	</g>
	<g class="st10">
		<path class="st0" d="M1303.5,1415.1l-16.9-22.8l4.5-3.3l16.9,22.8L1303.5,1415.1z"/>
	</g>
	<g class="st10">
		<path class="st0" d="M1314.6,1406.8l-17.7-22.2l4.3-3.4l14.4,18l9.9-7.9l3.3,4.1L1314.6,1406.8z"/>
	</g>
	<g class="st10">
		<path class="st0" d="M1310.4,1373.9l4.9-4.3l12.2,4.3l-2.6-12.6l4.7-4.1l3.3,19l7.9,9l-4.2,3.6l-7.9-9L1310.4,1373.9z"/>
	</g>
	<g class="st10">
		<path class="st0" d="M1356,1342.6c-1.3-0.9-3.9-1.7-6.5,0.9c-1.9,1.9-1.9,4.4-0.5,5.7c1.1,1.1,2.7,1.3,4.4,0l3.3-2.3
			c4.3-3,8.7-2.6,11.5,0.2c3.1,3.1,3.7,8.7-0.9,13.4c-5.3,5.4-11,4.3-14.2,1.8l2.6-4.6c2.2,1.8,5.3,2.2,8.1-0.7
			c2.1-2.1,2.2-4.3,0.7-5.7c-1.2-1.2-3-1.2-4.8,0.1l-3.3,2.3c-3.8,2.6-8,2.6-11-0.4c-3.6-3.5-3.2-9.4,0.6-13.3
			c4.8-4.9,9.6-3.9,12.4-2.1L1356,1342.6z"/>
	</g>
	<g class="st10">
		<path class="st0" d="M1366.9,1340c-6.8-6-6.6-14.9-1.6-20.6c5.2-5.9,11.4-5.8,15.6-3.6l-2.2,5c-2.5-1.3-6.2-1.6-9.4,2.1
			c-2.8,3.2-3.5,8.6,1.4,12.8c4.5,4,9.8,3,12.8-0.4c3.2-3.6,2.4-7.5,0.9-9.8l4.6-2.8c2.6,3.7,3.8,10.2-1.4,16.2
			C1382.3,1344.8,1373.7,1346,1366.9,1340z"/>
	</g>
	<g class="st10">
		<path class="st0" d="M1396.5,1310l-1.8,2.3l8.6,6.7l-3.4,4.4l-22.4-17.4l6.8-8.7c3.4-4.4,8.6-4.8,12.4-1.8
			c3.1,2.4,4.1,6.1,2.6,9.7l12.9,2.3l-3.8,4.9L1396.5,1310z M1393.7,1305.8c1.7-2.2,1.5-4.5-0.4-5.9c-1.9-1.5-4.1-1.1-5.9,1.1
			l-2.8,3.5l6.2,4.8L1393.7,1305.8z"/>
	</g>
	<g class="st10">
		<path class="st0" d="M1407.9,1296.5l-15-10.5l3.2-4.5l14.7,10.2c3.1,2.1,5.8,1.5,7.7-1.2c1.9-2.8,1.5-5.6-1.6-7.7l-14.7-10.2
			l3.2-4.5l15,10.5c5.7,4,6,10.1,2.5,15.1C1419.5,1298.6,1413.6,1300.5,1407.9,1296.5z"/>
	</g>
	<g class="st10">
		<path class="st0" d="M1446.8,1254.9l-17.1-10.2l12.9,17.2l-2.4,3.9l-21.1-3.1l16.9,10.1l-2.7,4.5l-24.3-14.6l3.7-6.2l21.9,3.2
			l-13.3-17.7l3.9-6.5l24.3,14.6L1446.8,1254.9z"/>
	</g>
</g>
<g>
	<g class="st10">
		<path class="st13" d="M1514.2,546.7c5.2-4.4,11.8-3.3,15.5,1c3.8,4.5,3.1,9.1,1,12l-3.5-2.2c1.2-1.7,1.9-4.4-0.5-7.2
			c-2.1-2.4-6-3.5-9.7-0.3c-3.4,2.9-3.3,7-1,9.6c2.4,2.8,5.3,2.6,7.2,1.7l1.6,3.7c-3,1.5-8,1.8-11.9-2.8
			C1509,557.6,1509.1,551.1,1514.2,546.7z"/>
	</g>
	<g>
		<g class="st10">
			<path class="st13" d="M1365.7,423.2l-4.3,6.7l-3.5-2.2l11.5-17.9l6.7,4.3c3.5,2.3,4.4,6.1,2.3,9.4c-2.1,3.3-5.9,4.1-9.5,1.8
				L1365.7,423.2z M1370.4,422c1.7,1.1,3.5,0.8,4.4-0.8c1-1.6,0.6-3.3-1.2-4.4l-2.8-1.8l-3.3,5.1L1370.4,422z"/>
		</g>
		<g class="st10">
			<path class="st13" d="M1383.4,434.7l-1.8-1.2l-4.6,6.8l-3.4-2.3l12-17.6l6.9,4.7c3.4,2.3,4,6.2,1.9,9.2c-1.7,2.5-4.4,3.3-7.1,2.4
				l-1.1,9.8l-3.8-2.6L1383.4,434.7z M1386.4,432.4c1.7,1.2,3.4,0.9,4.4-0.6c1-1.5,0.7-3.1-1.1-4.3l-2.8-1.9l-3.3,4.9L1386.4,432.4z
				"/>
		</g>
		<g class="st10">
			<path class="st13" d="M1410,436.9c4.7,3.4,6.4,9.9,2.3,15.4c-4,5.5-10.7,5.9-15.4,2.5c-4.7-3.4-6.3-9.9-2.3-15.4
				C1398.7,433.9,1405.4,433.5,1410,436.9z M1399.3,451.5c2.7,1.9,6.7,2.1,9.6-1.8c2.8-3.9,1.5-7.7-1.2-9.6
				c-2.6-1.9-6.7-2.1-9.5,1.8C1395.3,445.8,1396.7,449.6,1399.3,451.5z"/>
		</g>
		<g class="st10">
			<path class="st13" d="M1409.3,463.4l13.1-16.7l6,4.7c4.8,3.7,5.8,9.6,1.7,14.9c-4.1,5.3-10.1,5.6-14.8,1.9L1409.3,463.4z
				 M1417.6,465c2.7,2.1,6.4,2.2,9.2-1.4c2.9-3.6,1.9-7.1-0.8-9.3l-2.6-2.1l-8.4,10.7L1417.6,465z"/>
		</g>
		<g class="st10">
			<path class="st13" d="M1431.5,471.3l8.8-10.5l3.2,2.7l-8.6,10.3c-1.8,2.1-1.5,4.3,0.3,5.8c1.9,1.6,4,1.5,5.8-0.7l8.6-10.3
				l3.2,2.7l-8.8,10.5c-3.3,4-7.9,3.8-11.4,0.9C1429.1,479.8,1428.1,475.3,1431.5,471.3z"/>
		</g>
		<g class="st10">
			<path class="st13" d="M1449.3,482.2c4.5-5.1,11.2-4.8,15.5-1c4.4,3.9,4.2,8.6,2.6,11.8l-3.7-1.7c1-1.9,1.3-4.6-1.5-7.1
				c-2.4-2.1-6.4-2.7-9.6,0.9c-3,3.4-2.3,7.4,0.2,9.6c2.7,2.4,5.6,1.8,7.3,0.7l2.1,3.5c-2.8,1.9-7.7,2.8-12.2-1.2
				C1445.6,493.8,1444.7,487.3,1449.3,482.2z"/>
		</g>
		<g class="st10">
			<path class="st13" d="M1478.8,500.2l-12,12.6l-3-2.9l12-12.6l-4.9-4.6l2.7-2.8l12.8,12.1l-2.7,2.8L1478.8,500.2z"/>
		</g>
		<g class="st10">
			<path class="st13" d="M1500.6,516.3c2.9,3,2.8,6.3,0.4,8.6c-1.6,1.5-3.8,1.8-5.4,1c1.1,1.8,0.9,4.4-1,6.2
				c-2.5,2.4-6.1,2.3-8.8-0.6l-5.7-5.9l15.3-14.8L1500.6,516.3z M1487.6,528.6c1.4,1.4,3,1.6,4.2,0.4c1.2-1.2,1.3-2.8-0.1-4.2
				l-2.4-2.5l-4,3.9L1487.6,528.6z M1493.8,522c1.3,1.4,2.9,1.4,4,0.3s1.2-2.6-0.2-4l-2-2.1l-3.8,3.7L1493.8,522z"/>
		</g>
		<g class="st10">
			<path class="st13" d="M1504.9,544.9l-5.8-6.4l-4.8,2l-3-3.2l21.2-8.3l3.2,3.5l-10.2,20.3l-3-3.3L1504.9,544.9z M1502.8,537l4,4.3
				l4-7.6L1502.8,537z"/>
		</g>
		<g class="st10">
			<path class="st13" d="M1533.3,572.2l-3.9-0.2l-4.6,3.7l-2.6-3.2l16.6-13.3l2.6,3.2l-7.5,6l12.8,0.6l3.4,4.2l-12.5-0.8l-4.1,14.1
				l-3.2-4.1L1533.3,572.2z"/>
		</g>
		<g class="st10">
			<path class="st13" d="M1535.5,589.3l17-12.8l2.5,3.3l-13.8,10.4l5.7,7.6l-3.2,2.4L1535.5,589.3z"/>
		</g>
		<g class="st10">
			<path class="st13" d="M1568.9,598c3.3,4.7,2.9,11.4-2.7,15.3c-5.6,4-12,2.2-15.4-2.5c-3.3-4.7-2.9-11.4,2.7-15.3
				C1559.1,591.5,1565.6,593.3,1568.9,598z M1554.1,608.5c1.9,2.7,5.7,4.1,9.6,1.3c3.9-2.8,3.8-6.8,1.9-9.5
				c-1.9-2.7-5.7-4.1-9.6-1.3C1552.1,601.8,1552.2,605.8,1554.1,608.5z"/>
		</g>
		<g class="st10">
			<path class="st13" d="M1568.5,636.2l1.9-1.6c-1.7,0-4.1-1-5.8-3.7c-3.1-4.8-2.3-11.2,3.4-14.9c5.7-3.8,12.1-1.8,15.3,3
				c3.1,4.7,2,9-0.1,11.7l-3.3-2.5c1.3-1.5,2.1-4.2,0.3-7.1c-1.8-2.7-5.5-4.4-9.7-1.6c-4,2.6-4.4,6.6-2.4,9.6
				c2.2,3.3,5.2,3.1,6.6,2.5l-3.7-5.6l3-2l5.8,8.9l-9.3,6.1L1568.5,636.2z"/>
		</g>
	</g>
</g>
<g>
	<g class="st10">
		<path class="st14" d="M1104.4,1759.9c0.4,1.1,1.6,2.8,4.3,2.4c2-0.3,3.1-1.7,2.9-3.1c-0.2-1.2-1-2-2.6-2.1l-3-0.1
			c-3.9-0.2-6.3-2.4-6.8-5.4c-0.5-3.2,1.8-6.9,6.7-7.6c5.6-0.8,8.6,2.5,9.3,5.4l-3.7,1.5c-0.5-2.1-2.2-3.7-5.2-3.3
			c-2.2,0.3-3.3,1.6-3,3.1c0.2,1.2,1.2,2,2.9,2.1l3,0.2c3.5,0.2,5.9,2.1,6.4,5.2c0.5,3.7-2.4,7.1-6.4,7.6c-5.1,0.7-7.5-2.1-8.3-4.4
			L1104.4,1759.9z"/>
	</g>
	<g class="st10">
		<path class="st14" d="M1089.9,1754.6l-0.9-8l4.1-0.5l2.4,21.1l-7.9,0.9c-4.2,0.5-7.3-2-7.7-5.8c-0.4-3.8,2-6.9,6.2-7.4
			L1089.9,1754.6z M1087,1758.5c-2.1,0.2-3.2,1.6-3,3.4c0.2,1.9,1.6,2.9,3.7,2.7l3.2-0.4l-0.7-6L1087,1758.5z"/>
	</g>
	<g class="st10">
		<path class="st14" d="M1067.7,1757.1l2.2-0.2l-0.7-8.2l4.2-0.4l1.9,21.2l-8.3,0.7c-4.1,0.4-7-2.2-7.3-5.9c-0.3-3,1.3-5.4,4-6.4
			l-5.3-8.3l4.6-0.4L1067.7,1757.1z M1066.8,1760.7c-2.1,0.2-3.2,1.5-3.1,3.2c0.2,1.8,1.5,2.9,3.6,2.7l3.3-0.3l-0.5-5.9
			L1066.8,1760.7z"/>
	</g>
	<g class="st10">
		<path class="st14" d="M1052.7,1750l1.4,21.2l-4.2,0.3l-1.4-21.2L1052.7,1750z"/>
	</g>
	<g class="st10">
		<path class="st14" d="M1028,1751.4l10.3,14.7l-0.6-15.1l4.1-0.2l0.9,21.2l-5.2,0.2l-9.4-13.7l0.6,14.1l-4.1,0.2l-0.9-21.2
			L1028,1751.4z"/>
	</g>
	<g class="st10">
		<path class="st14" d="M1008.4,1769.2l-0.3-17.3l4.2-0.1l0.3,17.3l6.7-0.1l0.1,3.9l-17.6,0.3l-0.1-3.9L1008.4,1769.2z"/>
	</g>
	<g class="st10">
		<path class="st14" d="M988.3,1762.5c-0.2,6.8-5.4,10.9-11.1,10.8c-5.9-0.2-8.8-3.9-9.5-7.3l3.9-1.1c0.5,2.1,2,4.3,5.7,4.5
			c3.2,0.1,6.6-2.1,6.7-6.9c0.1-4.5-3-7.1-6.4-7.2c-3.6-0.1-5.5,2.2-6.1,4.2l-3.8-1.3c0.9-3.2,4.1-7.1,10-6.9
			C983.6,1751.3,988.5,1755.7,988.3,1762.5z"/>
	</g>
	<g class="st10">
		<path class="st14" d="M964.4,1772.4l-4.9-0.3l-4.3-8.7l-5.2,8.1l-4.6-0.3l8.2-11.9l0.5-8.9l4.1,0.2l-0.5,8.9L964.4,1772.4z"/>
	</g>
	<g class="st10">
		<path class="st14" d="M943.9,1760.5c-0.6,6.8-6.1,10.6-11.7,10.1c-5.9-0.5-8.6-4.4-9.1-7.9l4-0.9c0.3,2.1,1.8,4.5,5.5,4.8
			c3.2,0.3,6.7-1.7,7.1-6.5c0.4-4.5-2.6-7.3-6-7.6c-3.6-0.3-5.6,1.9-6.3,3.8l-3.8-1.5c1.1-3.2,4.5-6.9,10.4-6.4
			C939.9,1749.1,944.5,1753.8,943.9,1760.5z"/>
	</g>
	<g class="st10">
		<path class="st14" d="M919,1747.6l-2.4,21.1l-4.1-0.5l2-17.2l-9.4-1.1l0.5-3.9L919,1747.6z"/>
	</g>
	<g class="st10">
		<path class="st14" d="M900.5,1745.4l-3,21.1l-13.2-1.9l0.5-3.9l9.1,1.3l0.7-4.8l-8.2-1.2l0.5-3.7l8.2,1.2l0.7-4.9l-9.1-1.3
			l0.5-3.9L900.5,1745.4z"/>
	</g>
</g>
<g>
	<g class="st10">
		<path class="st14" d="M895.6,242.4c-0.4-1.1-1.6-2.8-4.3-2.4c-2,0.3-3.1,1.7-2.9,3.1c0.2,1.2,1,2,2.6,2.1l3,0.1
			c3.9,0.2,6.3,2.4,6.8,5.4c0.5,3.2-1.8,6.9-6.7,7.6c-5.6,0.8-8.6-2.5-9.3-5.4l3.7-1.5c0.5,2.1,2.2,3.7,5.2,3.3
			c2.2-0.3,3.3-1.6,3-3.1c-0.2-1.2-1.2-2-2.9-2.1l-3-0.2c-3.5-0.2-5.9-2.1-6.4-5.2c-0.5-3.7,2.4-7.1,6.4-7.6
			c5.1-0.7,7.5,2.1,8.3,4.4L895.6,242.4z"/>
	</g>
	<g class="st10">
		<path class="st14" d="M910.1,247.7l0.9,8l-4.1,0.5l-2.4-21.1l7.9-0.9c4.2-0.5,7.3,2,7.7,5.8c0.4,3.8-2,6.9-6.2,7.4L910.1,247.7z
			 M913,243.7c2.1-0.2,3.2-1.6,3-3.4c-0.2-1.9-1.6-2.9-3.7-2.7l-3.2,0.4l0.7,6L913,243.7z"/>
	</g>
	<g class="st10">
		<path class="st14" d="M932.3,245.2l-2.2,0.2l0.7,8.2l-4.2,0.4l-1.9-21.2l8.3-0.7c4.1-0.4,7,2.2,7.3,5.9c0.3,3-1.3,5.4-4,6.4
			l5.3,8.3l-4.6,0.4L932.3,245.2z M933.2,241.5c2.1-0.2,3.2-1.5,3.1-3.2c-0.2-1.8-1.5-2.9-3.6-2.7l-3.3,0.3l0.5,5.9L933.2,241.5z"/>
	</g>
	<g class="st10">
		<path class="st14" d="M947.3,252.2l-1.4-21.2l4.2-0.3l1.4,21.2L947.3,252.2z"/>
	</g>
	<g class="st10">
		<path class="st14" d="M972,250.9l-10.3-14.7l0.6,15.1l-4.1,0.2l-0.9-21.2l5.2-0.2l9.4,13.7l-0.6-14.1l4.1-0.2l0.9,21.2L972,250.9z
			"/>
	</g>
	<g class="st10">
		<path class="st14" d="M991.6,233.1l0.3,17.3l-4.2,0.1l-0.3-17.3l-6.7,0.1l-0.1-3.9l17.6-0.3l0.1,3.9L991.6,233.1z"/>
	</g>
	<g class="st10">
		<path class="st14" d="M1011.7,239.8c0.2-6.8,5.4-10.9,11.1-10.8c5.9,0.2,8.8,3.9,9.5,7.3l-3.9,1.1c-0.5-2.1-2-4.3-5.7-4.5
			c-3.2-0.1-6.6,2.1-6.7,6.9c-0.1,4.5,3,7.1,6.4,7.2c3.6,0.1,5.5-2.2,6.1-4.2l3.8,1.3c-0.9,3.2-4.1,7.1-10,6.9
			C1016.4,251,1011.5,246.6,1011.7,239.8z"/>
	</g>
	<g class="st10">
		<path class="st14" d="M1035.6,229.9l4.9,0.3l4.3,8.7l5.2-8.1l4.6,0.3l-8.2,11.9l-0.5,8.9l-4.1-0.2l0.5-8.9L1035.6,229.9z"/>
	</g>
	<g class="st10">
		<path class="st14" d="M1056.1,241.8c0.6-6.8,6.1-10.6,11.7-10.1c5.9,0.5,8.6,4.4,9.1,7.9l-4,0.9c-0.3-2.1-1.8-4.5-5.5-4.8
			c-3.2-0.3-6.7,1.7-7.1,6.5c-0.4,4.5,2.6,7.3,6,7.6c3.6,0.3,5.6-1.9,6.3-3.8l3.8,1.5c-1.1,3.2-4.5,6.9-10.4,6.4
			C1060.1,253.2,1055.5,248.5,1056.1,241.8z"/>
	</g>
	<g class="st10">
		<path class="st14" d="M1081,254.7l2.4-21.1l4.1,0.5l-2,17.2l9.4,1.1l-0.5,3.9L1081,254.7z"/>
	</g>
	<g class="st10">
		<path class="st14" d="M1099.5,256.9l3-21.1l13.2,1.9l-0.5,3.9l-9.1-1.3l-0.7,4.8l8.2,1.2l-0.5,3.7l-8.2-1.2l-0.7,4.9l9.1,1.3
			l-0.5,3.9L1099.5,256.9z"/>
	</g>
</g>
</svg>
